<svg height="512" viewBox="0 0 64 64" width="512" xmlns="http://www.w3.org/2000/svg"><g id="Driver_License-Id-License-Transport-Identification" data-name="Driver License-Id-License-Transport-Identification"><path d="m62 14v36a4 4 0 0 1 -4 4h-52a4 4 0 0 1 -4-4v-36z" fill="#ffd422"/><path d="m62 12v2h-60v-2a4 4 0 0 1 4-4h52a4 4 0 0 1 4 4z" fill="#3d9ae2"/><path d="m29.44 44.42-2.74-1.22-2.7-1.2v-2.68a6.952 6.952 0 0 0 3.92-5.32h1.08a2 2 0 0 0 0-4h-1v-3a7 7 0 0 0 -14 0v3h-1a2 2 0 0 0 0 4h1.08a6.946 6.946 0 0 0 3.92 5.32v2.68l-2.7 1.2-2.74 1.22a6 6 0 0 0 -3.56 5.48v2.1h24v-2.1a6 6 0 0 0 -3.56-5.48z" fill="#ebbf00"/><path d="m31 47.9v2.1h-9l-1.82-6.18.82-.82 3 1 .7-2.8 2.74 1.22a6 6 0 0 1 3.56 5.48z" fill="#898890"/><path d="m29 30a2.006 2.006 0 0 1 -2 2h-2v-4h2a2.006 2.006 0 0 1 2 2z" fill="#ffb655"/><path d="m26 25v2h-.66a3.014 3.014 0 0 1 -2.91-2.27l-.43-1.73a4 4 0 0 1 -4 4h-6v-2a7 7 0 1 1 14 0z" fill="#57565c"/><path d="m24.7 41.2-.7 2.8-3-1-1-2 2-1z" fill="#57565c"/><path d="m20.18 43.82 1.82 6.18h-6l1.82-6.18 1.18 1.18z" fill="#c6c5ca"/><path d="m20 41 1 2-.82.82-1.18 1.18-1.18-1.18-.82-.82 1-2z" fill="#acabb1"/><path d="m18 41-1 2-3 1-.7-2.8 2.7-1.2z" fill="#57565c"/><path d="m17.82 43.82-1.82 6.18h-9v-2.1a6 6 0 0 1 3.56-5.48l2.74-1.22.7 2.8 3-1z" fill="#898890"/><path d="m13 28v4h-2a2 2 0 0 1 0-4z" fill="#ffb655"/><path d="m22 37v3l-2 1h-2l-2-1v-3z" fill="#ffc477"/><path d="m22 37v2.32a6.958 6.958 0 0 1 -6 0v-2.32z" fill="#ffb655"/><path d="m26 27v4a5.474 5.474 0 0 1 -.08 1 6.952 6.952 0 0 1 -3.92 5.32 6.982 6.982 0 0 1 -9.92-5.32 5.474 5.474 0 0 1 -.08-1v-4h6a4 4 0 0 0 4-4l.43 1.73a3.014 3.014 0 0 0 2.91 2.27z" fill="#ffc477"/><path d="m15 29h2v2h-2z"/><path d="m21 29h2v2h-2z"/><path d="m58 7h-52a5 5 0 0 0 -5 5v38a5 5 0 0 0 5 5h52a5 5 0 0 0 5-5v-38a5 5 0 0 0 -5-5zm3 43a3.009 3.009 0 0 1 -3 3h-52a3.009 3.009 0 0 1 -3-3v-35h58zm0-37h-58v-1a3.009 3.009 0 0 1 3-3h52a3.009 3.009 0 0 1 3 3z"/><path d="m27.85 41.51-4.85-2.16v-1.43a8.06 8.06 0 0 0 3.74-4.92h.26a3 3 0 0 0 0-6v-2a8 8 0 0 0 -16 0v2a3 3 0 0 0 0 6h.26a8.06 8.06 0 0 0 3.74 4.92v1.43l-4.85 2.16a7 7 0 0 0 -4.15 6.39v2.1a1 1 0 0 0 1 1h24a1 1 0 0 0 1-1v-2.1a7 7 0 0 0 -4.15-6.39zm-.85-12.51a1 1 0 0 1 0 2zm-16 2a1 1 0 0 1 0-2zm12.53 10.77-.24.94-1.58-.53-.37-.73.68-.34zm-10.53-16.77a6 6 0 0 1 12 0v.97a2.009 2.009 0 0 1 -1.6-1.48l-.43-1.73a1 1 0 0 0 -1.97.24 3.009 3.009 0 0 1 -3 3h-5zm0 6v-3h5a5.012 5.012 0 0 0 3.93-1.91 3.99 3.99 0 0 0 3.07 1.89v3.02a6 6 0 0 1 -12 0zm2.98 10.11.68.34-.37.73-1.58.53-.24-.94zm-.73 7.89h-7.25v-1.1a5 5 0 0 1 2.97-4.57l1.65-.73.41 1.64a1.017 1.017 0 0 0 .49.64 1 1 0 0 0 .48.12 1.185 1.185 0 0 0 .32-.05l2.36-.79zm2.09 0 .96-3.29a.99.99 0 0 0 1.4 0l.96 3.29zm.88-6.2.4-.8h.76l.4.8-.78.79zm2.78-3.42-1.24.62h-1.52l-1.24-.62v-.64a7.822 7.822 0 0 0 4 0zm9 9.62h-7.25l-1.43-4.84 2.36.79a1.185 1.185 0 0 0 .32.05 1 1 0 0 0 .48-.12 1.017 1.017 0 0 0 .49-.64l.41-1.64 1.65.73a5 5 0 0 1 2.97 4.57z"/><path d="m34 18h4v2h-4z"/><path d="m42 18h2v2h-2z"/><path d="m46 18h2v2h-2z"/><path d="m50 18h2v2h-2z"/><path d="m54 18h2v2h-2z"/><path d="m34 31h6v2h-6z"/><path d="m42 27h4v2h-4z"/><path d="m48 27h8v2h-8z"/><path d="m42 31h14v2h-14z"/><path d="m42 37h2v2h-2z"/><path d="m46 37h2v2h-2z"/><path d="m50 37h2v2h-2z"/><path d="m54 37h2v2h-2z"/><path d="m42 48h4v2h-4z"/><path d="m48 48h4v2h-4z"/><path d="m54 48h2v2h-2z"/></g></svg>